# xmcd
#
# Track frame offsets: 
#        150
#        25951
#        54772
#        79739
#        112094
#        137319
#        164115
#        196474
#        222330
#        248534
#
# Disc length: 3720 seconds
#
# Revision: 0
# Processed by: cddbd v1.5.2PL0 Copyright (c) Steve Scherf et al.
# Submitted via: ExactAudioCopyFreeDBPlugin 1.0
#
DISCID=850e860a
DTITLE=Young Fellaz Brass Band - Swagger
DYEAR=2012
DGENRE=New Orleans Brass Band
TTITLE0=Big One
TTITLE1=Just Got Paid
TTITLE2=I Got 5 On It
TTITLE3=All I Want Is You
TTITLE4=Before I Let You Go
TTITLE5=Loving You Tonight
TTITLE6=Forget You
TTITLE7=Freaky In The Club
TTITLE8=Slippin' Into The Darkness
TTITLE9=Hollywood Tonight
EXTD=
EXTT0=
EXTT1=
EXTT2=
EXTT3=
EXTT4=
EXTT5=
EXTT6=
EXTT7=
EXTT8=
EXTT9=
PLAYORDER=
